<svg width="44" height="44" viewBox="0 0 44 44" fill="none" xmlns="http://www.w3.org/2000/svg">
<path d="M13.1018 31.5059C13.1266 31.463 13.1521 31.4203 13.1781 31.3779C13.7478 30.4486 14.2456 29.4684 14.6633 28.4451M24.1385 34.8334C24.9961 33.077 25.6992 31.2276 26.2295 29.3046M27.107 24.9893C27.2949 23.5776 27.392 22.137 27.392 20.6741C27.392 17.4964 24.8813 14.9204 21.7842 14.9204C18.687 14.9204 16.1763 17.4964 16.1763 20.6741C16.1763 21.6517 16.1088 22.6121 15.9782 23.5509M31.6116 30.9328C32.5159 27.673 33 24.2315 33 20.6741C33 18.4942 32.4093 16.456 31.3831 14.7186M9.16666 26.9515C10.0648 25.0546 10.5686 22.9247 10.5686 20.6741C10.5686 18.5781 11.1148 16.613 12.0691 14.9204M16.1765 10.7062C17.8261 9.72706 19.7414 9.16669 21.7843 9.16669C23.8271 9.16669 25.7424 9.72703 27.392 10.7061M21.7841 20.6741C21.7841 25.7333 20.3698 30.4536 17.9248 34.4415M30.1481 3.66669H31.5333C34.6136 3.66669 36.1538 3.66669 37.3303 4.26615C38.3652 4.79345 39.2066 5.63485 39.7339 6.66974C40.3333 7.84625 40.3333 9.3864 40.3333 12.4667V13.8519M13.8518 3.66669H12.4667C9.38637 3.66669 7.84622 3.66669 6.66971 4.26615C5.63482 4.79345 4.79342 5.63485 4.26612 6.66974C3.66666 7.84625 3.66666 9.3864 3.66666 12.4667V13.8519M3.66666 30.1482V31.5334C3.66666 34.6136 3.66666 36.1538 4.26612 37.3303C4.79342 38.3652 5.63482 39.2066 6.66971 39.7339C7.84622 40.3334 9.38637 40.3334 12.4667 40.3334H13.8518M30.1481 40.3334H31.5333C34.6136 40.3334 36.1538 40.3334 37.3303 39.7339C38.3652 39.2066 39.2066 38.3652 39.7339 37.3303C40.3333 36.1538 40.3333 34.6136 40.3333 31.5334V30.1482" stroke="black" stroke-width="2" stroke-linecap="round" stroke-linejoin="round"/>
</svg>
