<svg width="49" height="37" viewBox="0 0 49 37" fill="none" xmlns="http://www.w3.org/2000/svg">
<path d="M46.2593 1H2.74074C1.77936 1 1 1.9434 1 3.10714V34.2929C1 35.4566 1.77936 36.4 2.74074 36.4H46.2593C47.2206 36.4 48 35.4566 48 34.2929V3.10714C48 1.9434 47.2206 1 46.2593 1Z" stroke="black" stroke-linecap="round" stroke-linejoin="round"/>
<path d="M5.78703 7.63752C6.50807 7.63752 7.09259 6.92997 7.09259 6.05716C7.09259 5.18436 6.50807 4.47681 5.78703 4.47681C5.06599 4.47681 4.48148 5.18436 4.48148 6.05716C4.48148 6.92997 5.06599 7.63752 5.78703 7.63752Z" fill="black"/>
<path d="M9.26854 7.63752C9.98958 7.63752 10.5741 6.92997 10.5741 6.05716C10.5741 5.18436 9.98958 4.47681 9.26854 4.47681C8.5475 4.47681 7.96298 5.18436 7.96298 6.05716C7.96298 6.92997 8.5475 7.63752 9.26854 7.63752Z" fill="black"/>
<path d="M15.3611 7.63752C16.0821 7.63752 16.6667 6.92997 16.6667 6.05716C16.6667 5.18436 16.0821 4.47681 15.3611 4.47681C14.6401 4.47681 14.0555 5.18436 14.0555 6.05716C14.0555 6.92997 14.6401 7.63752 15.3611 7.63752Z" fill="black"/>
<path d="M18.8426 7.63752C19.5636 7.63752 20.1482 6.92997 20.1482 6.05716C20.1482 5.18436 19.5636 4.47681 18.8426 4.47681C18.1216 4.47681 17.537 5.18436 17.537 6.05716C17.537 6.92997 18.1216 7.63752 18.8426 7.63752Z" fill="black"/>
<path d="M12.3148 20.8072C13.9972 20.8072 15.3611 19.1562 15.3611 17.1197C15.3611 15.0831 13.9972 13.4322 12.3148 13.4322C10.6324 13.4322 9.26852 15.0831 9.26852 17.1197C9.26852 19.1562 10.6324 20.8072 12.3148 20.8072Z" stroke="black" stroke-linecap="round" stroke-linejoin="round"/>
<path d="M5.35187 31.8697C5.35187 29.6343 6.08546 27.4904 7.39127 25.9098C8.69708 24.3291 10.4681 23.4411 12.3148 23.4411C14.1615 23.4411 15.9326 24.3291 17.2384 25.9098C18.5442 27.4904 19.2778 29.6343 19.2778 31.8697" stroke="black" stroke-linecap="round" stroke-linejoin="round"/>
<path d="M43.6482 19.2268H23.6296V31.8696H43.6482V19.2268ZM43.6482 19.2268V15.0125H28.8519V19.2268H43.6482ZM32.3333 15.0125V19.2268M27.1111 23.4411H40.1667M27.1111 27.6553H40.1667M5.35187 10.7982H19.2778V31.8696H5.35187V10.7982ZM40.1667 6.05713H43.6482V10.2714H40.1667V6.05713Z" stroke="black" stroke-linecap="round" stroke-linejoin="round"/>
</svg>
