<svg width="53" height="46" viewBox="0 0 53 46" fill="none" xmlns="http://www.w3.org/2000/svg">
<path fill-rule="evenodd" clip-rule="evenodd" d="M22.8905 7.25744C23.11 6.70866 23.6416 6.34882 24.2326 6.34882H28.7674C29.3584 6.34882 29.8899 6.70866 30.1094 7.25744L31.5599 10.8836H37.7362C38.9707 10.8836 40.0993 11.5811 40.6514 12.6853L46.3716 24.1257L50.6481 27.8676C52.1427 29.1754 53 31.0647 53 33.0507V40.6713C53 41.4696 52.3528 42.1167 51.5545 42.1167H45.4221C44.7997 44.2144 42.8574 45.7446 40.5577 45.7446C38.2581 45.7446 36.3158 44.2144 35.6934 42.1167H20.0275C19.4051 44.2144 17.4628 45.7446 15.1631 45.7446C12.8634 45.7446 10.9211 44.2144 10.2987 42.1167H3.25936C1.45927 42.1167 0 40.6575 0 38.8574V14.1429C0 12.3428 1.45926 10.8836 3.25936 10.8836H21.4401L22.8905 7.25744ZM24.5537 10.8836H28.4463L27.7887 9.23973H25.2112L24.5537 10.8836ZM10.2987 39.2258C10.9211 37.1281 12.8634 35.598 15.1631 35.598C17.4628 35.598 19.4051 37.1281 20.0275 39.2258H35.6934C36.3158 37.1281 38.2581 35.598 40.5577 35.598C42.8574 35.598 44.7997 37.1281 45.4221 39.2258H50.1091V33.0507C50.1091 31.8984 49.6116 30.8021 48.7444 30.0432L44.254 26.1142C44.1128 25.9906 43.997 25.8407 43.913 25.6728L38.0657 13.9782C38.0033 13.8533 37.8757 13.7745 37.7362 13.7745H3.25936C3.05587 13.7745 2.89091 13.9394 2.89091 14.1429V38.8574C2.89091 39.0609 3.05587 39.2258 3.25936 39.2258H10.2987ZM15.1631 38.4889C13.9578 38.4889 12.9807 39.466 12.9807 40.6713C12.9807 41.8766 13.9578 42.8536 15.1631 42.8536C16.3684 42.8536 17.3454 41.8766 17.3454 40.6713C17.3454 39.466 16.3684 38.4889 15.1631 38.4889ZM40.5577 38.4889C39.3525 38.4889 38.3754 39.466 38.3754 40.6713C38.3754 41.8766 39.3525 42.8536 40.5577 42.8536C41.763 42.8536 42.7401 41.8766 42.7401 40.6713C42.7401 39.466 41.763 38.4889 40.5577 38.4889Z" fill="white"/>
<path fill-rule="evenodd" clip-rule="evenodd" d="M24.3459 20.9732C25.1442 20.9732 25.7914 21.6204 25.7914 22.4187V24.6011H27.9739C28.7722 24.6011 29.4194 25.2483 29.4194 26.0466C29.4194 26.8449 28.7722 27.492 27.9739 27.492H25.7914V29.6743C25.7914 30.4726 25.1442 31.1198 24.3459 31.1198C23.5476 31.1198 22.9005 30.4726 22.9005 29.6743V27.492H20.7183C19.92 27.492 19.2728 26.8449 19.2728 26.0466C19.2728 25.2483 19.92 24.6011 20.7183 24.6011H22.9005V22.4187C22.9005 21.6204 23.5476 20.9732 24.3459 20.9732Z" fill="white"/>
<path fill-rule="evenodd" clip-rule="evenodd" d="M26.3546 -6.31829e-08C25.5563 -2.82879e-08 24.9092 0.647152 24.9092 1.44546L24.9092 3.25936C24.9092 4.05766 25.5563 4.70481 26.3546 4.70481C27.1529 4.70481 27.8001 4.05766 27.8001 3.25936L27.8001 1.44546C27.8001 0.647152 27.1529 -9.80778e-08 26.3546 -6.31829e-08Z" fill="white"/>
<path fill-rule="evenodd" clip-rule="evenodd" d="M35.1332 2.67294C34.5688 2.10845 33.6535 2.10845 33.0891 2.67294L31.8064 3.95556C31.2419 4.52005 31.2419 5.43526 31.8064 5.99975C32.3709 6.56423 33.2861 6.56423 33.8506 5.99975L35.1332 4.71712C35.6977 4.15264 35.6977 3.23743 35.1332 2.67294Z" fill="white"/>
<path fill-rule="evenodd" clip-rule="evenodd" d="M17.5761 2.67295C17.0117 3.23743 17.0117 4.15264 17.5761 4.71713L18.8588 5.99975C19.4232 6.56424 20.3385 6.56424 20.9029 5.99975C21.4674 5.43527 21.4674 4.52006 20.9029 3.95557L19.6203 2.67295C19.0558 2.10846 18.1406 2.10846 17.5761 2.67295Z" fill="white"/>
</svg>
